<?xml version="1.0" encoding="utf-8"?>
<!-- Generator: Adobe Illustrator 27.5.0, SVG Export Plug-In . SVG Version: 6.00 Build 0)  -->
<svg version="1.1" xmlns="http://www.w3.org/2000/svg" xmlns:xlink="http://www.w3.org/1999/xlink" x="0px" y="0px"
	 viewBox="0 0 500 500" style="enable-background:new 0 0 500 500;" xml:space="preserve">
<g id="Background_Complete">
	<g>
		<rect y="382.398" style="fill:#EBEBEB;" width="500" height="0.25"/>
		<rect x="416.779" y="398.494" style="fill:#EBEBEB;" width="33.122" height="0.25"/>
		<rect x="322.527" y="401.208" style="fill:#EBEBEB;" width="8.693" height="0.25"/>
		<rect x="396.586" y="389.208" style="fill:#EBEBEB;" width="19.192" height="0.25"/>
		<rect x="52.459" y="390.888" style="fill:#EBEBEB;" width="43.193" height="0.25"/>
		<rect x="104.556" y="390.888" style="fill:#EBEBEB;" width="6.333" height="0.25"/>
		<rect x="131.471" y="395.111" style="fill:#EBEBEB;" width="93.676" height="0.25"/>
		<path style="fill:#EBEBEB;" d="M237.014,337.8H43.915c-3.147,0-5.708-2.561-5.708-5.708V60.66c0-3.147,2.561-5.708,5.708-5.708
			h193.099c3.146,0,5.707,2.561,5.707,5.708v271.432C242.721,335.239,240.16,337.8,237.014,337.8z M43.915,55.203
			c-3.01,0-5.458,2.448-5.458,5.458v271.432c0,3.01,2.448,5.458,5.458,5.458h193.099c3.009,0,5.457-2.448,5.457-5.458V60.66
			c0-3.009-2.448-5.458-5.457-5.458H43.915z"/>
		<path style="fill:#EBEBEB;" d="M453.31,337.8H260.212c-3.147,0-5.707-2.561-5.707-5.708V60.66c0-3.147,2.561-5.708,5.707-5.708
			H453.31c3.148,0,5.708,2.561,5.708,5.708v271.432C459.019,335.239,456.458,337.8,453.31,337.8z M260.212,55.203
			c-3.009,0-5.457,2.448-5.457,5.458v271.432c0,3.01,2.448,5.458,5.457,5.458H453.31c3.01,0,5.458-2.448,5.458-5.458V60.66
			c0-3.009-2.448-5.458-5.458-5.458H260.212z"/>
	</g>
	<g>
		<g>
			<rect x="138.682" y="300.494" style="fill:#E6E6E6;" width="67.746" height="72.919"/>
			<rect x="208.256" y="295.069" style="fill:#E6E6E6;" width="8.516" height="87.805"/>
			<rect x="149.466" y="306.234" style="fill:#FAFAFA;" width="5.551" height="27.25"/>
			<rect x="172.481" y="306.234" style="fill:#F5F5F5;" width="5.551" height="27.25"/>
			<rect x="155.017" y="308.149" style="fill:#F5F5F5;" width="5.551" height="25.335"/>
			<rect x="166.93" y="308.149" style="fill:#FAFAFA;" width="5.551" height="25.335"/>
			<rect x="163.343" y="306.234" style="fill:#EBEBEB;" width="3.587" height="27.25"/>
			<rect x="160.568" y="308.149" style="fill:#FAFAFA;" width="2.775" height="25.335"/>
			<rect x="178.032" y="306.234" style="fill:#EBEBEB;" width="5.551" height="27.25"/>
			<rect x="183.583" y="308.149" style="fill:#E6E6E6;" width="5.551" height="25.335"/>
			<rect x="195.497" y="308.149" style="fill:#E6E6E6;" width="5.551" height="25.335"/>
			<rect x="191.91" y="306.234" style="fill:#FAFAFA;" width="3.587" height="27.25"/>
			<rect x="189.134" y="308.149" style="fill:#EBEBEB;" width="2.775" height="25.335"/>
			<rect x="201.048" y="306.88" style="fill:#FAFAFA;" width="2.775" height="26.604"/>
			
				<rect x="198.272" y="342.757" transform="matrix(-1 -1.224647e-16 1.224647e-16 -1 402.0949 712.7633)" style="fill:#FAFAFA;" width="5.551" height="27.25"/>
			
				<rect x="175.257" y="342.757" transform="matrix(-1 -1.224647e-16 1.224647e-16 -1 356.0645 712.7633)" style="fill:#FAFAFA;" width="5.551" height="27.25"/>
			
				<rect x="192.721" y="344.672" transform="matrix(-1 -1.224647e-16 1.224647e-16 -1 390.9932 714.6783)" style="fill:#F0F0F0;" width="5.551" height="25.335"/>
			
				<rect x="180.808" y="344.672" transform="matrix(-1 -1.224647e-16 1.224647e-16 -1 367.1663 714.6783)" style="fill:#EBEBEB;" width="5.551" height="25.335"/>
			
				<rect x="186.359" y="342.757" transform="matrix(-1 -1.224647e-16 1.224647e-16 -1 376.3043 712.7633)" style="fill:#FAFAFA;" width="3.587" height="27.25"/>
			
				<rect x="189.946" y="344.672" transform="matrix(-1 -1.224647e-16 1.224647e-16 -1 382.6669 714.6783)" style="fill:#F5F5F5;" width="2.776" height="25.335"/>
			
				<rect x="169.706" y="342.757" transform="matrix(-1 -1.224647e-16 1.224647e-16 -1 344.9627 712.7633)" style="fill:#EBEBEB;" width="5.551" height="27.25"/>
			
				<rect x="164.155" y="344.672" transform="matrix(-1 -1.224647e-16 1.224647e-16 -1 333.8609 714.6783)" style="fill:#F5F5F5;" width="5.551" height="25.335"/>
			
				<rect x="152.242" y="344.672" transform="matrix(-1 -1.224647e-16 1.224647e-16 -1 310.0341 714.6783)" style="fill:#E6E6E6;" width="5.551" height="25.335"/>
			
				<rect x="157.792" y="342.757" transform="matrix(-1 -1.224647e-16 1.224647e-16 -1 319.172 712.7633)" style="fill:#FAFAFA;" width="3.587" height="27.25"/>
			
				<rect x="145.879" y="342.757" transform="matrix(-1 -1.224647e-16 1.224647e-16 -1 295.3452 712.7633)" style="fill:#FAFAFA;" width="3.587" height="27.25"/>
			
				<rect x="161.38" y="344.672" transform="matrix(-1 -1.224647e-16 1.224647e-16 -1 325.5345 714.6783)" style="fill:#EBEBEB;" width="2.776" height="25.335"/>
			
				<rect x="149.466" y="343.402" transform="matrix(-1 -1.224647e-16 1.224647e-16 -1 301.7077 713.4087)" style="fill:#F0F0F0;" width="2.776" height="26.604"/>
			<path style="fill:#F0F0F0;" d="M206.087,295.069h-2.271h-67.279v82.885h67.279v4.92h4.542v-87.805H206.087z M203.816,370.007
				H140.82v-31.951h62.996V370.007z M203.816,333.514H140.82v-30.497h62.996V333.514z"/>
			
				<rect x="70.825" y="300.494" transform="matrix(-1 -1.224647e-16 1.224647e-16 -1 209.3965 673.907)" style="fill:#E6E6E6;" width="67.746" height="72.919"/>
			
				<rect x="73.43" y="377.063" transform="matrix(-1 -1.224647e-16 1.224647e-16 -1 155.376 759.9374)" style="fill:#E6E6E6;" width="8.516" height="5.812"/>
			
				<rect x="130.738" y="306.234" transform="matrix(-1 -1.224647e-16 1.224647e-16 -1 267.0271 639.7184)" style="fill:#FAFAFA;" width="5.551" height="27.25"/>
			
				<rect x="107.723" y="306.234" transform="matrix(-1 -1.224647e-16 1.224647e-16 -1 220.9964 639.7184)" style="fill:#F5F5F5;" width="5.551" height="27.25"/>
			
				<rect x="125.187" y="308.149" transform="matrix(-1 -1.224647e-16 1.224647e-16 -1 255.9252 641.6334)" style="fill:#F5F5F5;" width="5.551" height="25.335"/>
			
				<rect x="113.274" y="308.149" transform="matrix(-1 -1.224647e-16 1.224647e-16 -1 232.0983 641.6334)" style="fill:#FAFAFA;" width="5.551" height="25.335"/>
			
				<rect x="118.825" y="306.234" transform="matrix(-1 -1.224647e-16 1.224647e-16 -1 241.2362 639.7184)" style="fill:#EBEBEB;" width="3.587" height="27.25"/>
			
				<rect x="122.412" y="308.149" transform="matrix(-1 -1.224647e-16 1.224647e-16 -1 247.5987 641.6334)" style="fill:#FAFAFA;" width="2.776" height="25.335"/>
			
				<rect x="105.831" y="306.234" transform="matrix(-1 -1.224647e-16 1.224647e-16 -1 217.2134 639.7184)" style="fill:#EBEBEB;" width="5.551" height="27.25"/>
			
				<rect x="100.28" y="308.149" transform="matrix(-1 -1.224647e-16 1.224647e-16 -1 206.1117 641.6334)" style="fill:#E6E6E6;" width="5.551" height="25.335"/>
			
				<rect x="88.367" y="308.149" transform="matrix(-1 -1.224647e-16 1.224647e-16 -1 182.2849 641.6334)" style="fill:#E6E6E6;" width="5.551" height="25.335"/>
			
				<rect x="93.918" y="306.234" transform="matrix(-1 -1.224647e-16 1.224647e-16 -1 191.4229 639.7184)" style="fill:#FAFAFA;" width="3.587" height="27.25"/>
			
				<rect x="97.505" y="308.149" transform="matrix(-1 -1.224647e-16 1.224647e-16 -1 197.7854 641.6334)" style="fill:#EBEBEB;" width="2.775" height="25.335"/>
			
				<rect x="85.591" y="306.88" transform="matrix(-1 -1.224647e-16 1.224647e-16 -1 173.9585 640.3639)" style="fill:#F5F5F5;" width="2.776" height="26.604"/>
			<rect x="82.984" y="342.757" style="fill:#FAFAFA;" width="5.551" height="27.25"/>
			<rect x="105.999" y="342.757" style="fill:#FAFAFA;" width="5.551" height="27.25"/>
			<rect x="88.535" y="344.672" style="fill:#F5F5F5;" width="5.551" height="25.335"/>
			<rect x="100.449" y="344.672" style="fill:#EBEBEB;" width="5.551" height="25.335"/>
			<rect x="96.862" y="342.757" style="fill:#FAFAFA;" width="3.587" height="27.25"/>
			<rect x="94.086" y="344.672" style="fill:#F5F5F5;" width="2.776" height="25.335"/>
			<rect x="107.891" y="342.757" style="fill:#EBEBEB;" width="5.551" height="27.25"/>
			<rect x="113.442" y="344.672" style="fill:#F5F5F5;" width="5.551" height="25.335"/>
			<rect x="125.355" y="344.672" style="fill:#E6E6E6;" width="5.551" height="25.335"/>
			<rect x="121.768" y="342.757" style="fill:#FAFAFA;" width="3.587" height="27.25"/>
			<rect x="132.95" y="342.757" style="fill:#FAFAFA;" width="3.587" height="27.25"/>
			<rect x="118.993" y="344.672" style="fill:#EBEBEB;" width="2.776" height="25.335"/>
			<rect x="130.906" y="343.402" style="fill:#EBEBEB;" width="2.776" height="26.604"/>
			<path style="fill:#F0F0F0;" d="M68.896,295.069v87.805h4.542v-4.92h67.279v-82.885H73.437h-2.271H68.896z M73.437,338.056h62.996
				v31.951H73.437V338.056z M73.437,303.017h62.996v30.497H73.437V303.017z"/>
		</g>
		<g>
			
				<rect x="73.768" y="86.625" transform="matrix(-1 -1.224647e-16 1.224647e-16 -1 290.667 321.1457)" style="fill:#EBEBEB;" width="143.132" height="147.895"/>
			
				<rect x="68.768" y="86.625" transform="matrix(-1 -1.224647e-16 1.224647e-16 -1 280.667 321.1457)" style="fill:#F0F0F0;" width="143.132" height="147.895"/>
			<rect x="72.561" y="90.131" style="fill:#E0E0E0;" width="135.729" height="140.953"/>
			<rect x="75.952" y="90.13" style="fill:#F5F5F5;" width="132.34" height="140.95"/>
			
				<rect x="140.753" y="90.131" transform="matrix(-1 -1.224647e-16 1.224647e-16 -1 284.1928 321.2147)" style="fill:#EBEBEB;" width="2.687" height="140.953"/>
			<polygon style="fill:#FFFFFF;" points="125.332,90.13 87.612,231.079 83.992,231.079 121.712,90.13 			"/>
			
				<rect x="139.601" y="87.957" transform="matrix(-1 -1.224647e-16 1.224647e-16 -1 281.5056 321.7418)" style="fill:#F0F0F0;" width="2.304" height="145.828"/>
			<polygon style="fill:#FFFFFF;" points="111.642,90.13 75.952,223.52 75.952,150.199 92.022,90.13 			"/>
			<polygon style="fill:#FFFFFF;" points="208.292,102.92 208.292,116.45 177.612,231.079 173.992,231.079 			"/>
			<polygon style="fill:#FFFFFF;" points="208.292,130.24 208.292,203.559 200.932,231.079 181.312,231.079 			"/>
		</g>
		<g>
			
				<ellipse transform="matrix(0.9732 -0.2298 0.2298 0.9732 -14.188 87.5616)" style="fill:#E0E0E0;" cx="368.92" cy="104.708" rx="20.454" ry="20.454"/>
			
				<ellipse transform="matrix(0.7071 -0.7071 0.7071 0.7071 34.0145 291.534)" style="fill:#F0F0F0;" cx="368.92" cy="104.708" rx="17.391" ry="17.391"/>
			
				<polyline style="fill:#F0F0F0;stroke:#E0E0E0;stroke-width:2;stroke-linecap:round;stroke-linejoin:round;stroke-miterlimit:10;" points="
				368.099,116.638 368.099,104.481 360.043,109.04 			"/>
		</g>
		<g>
			<rect x="304.502" y="162.793" style="fill:#E0E0E0;" width="128.835" height="5.26"/>
			<rect x="310.432" y="143.404" style="fill:#EBEBEB;" width="5.676" height="19.389"/>
			<rect x="337.877" y="143.404" style="fill:#EBEBEB;" width="5.676" height="19.389"/>
			<polygon style="fill:#EBEBEB;" points="378.854,162.027 373.261,162.793 369.117,143.685 374.71,142.919 			"/>
			<rect x="317.465" y="145.959" style="fill:#EBEBEB;" width="5.676" height="16.834"/>
			<rect x="330.511" y="145.959" style="fill:#EBEBEB;" width="5.676" height="16.834"/>
			<rect x="363.441" y="145.959" style="fill:#EBEBEB;" width="5.676" height="16.834"/>
			<polygon style="fill:#EBEBEB;" points="355.604,161.814 350.063,162.793 345.468,146.359 351.009,145.381 			"/>
			<rect x="325.211" y="142.441" style="fill:#EBEBEB;" width="2.838" height="20.352"/>
			<rect x="358.971" y="142.441" style="fill:#EBEBEB;" width="2.838" height="20.352"/>
			<rect x="393.319" y="147.447" style="fill:#EBEBEB;" width="27.656" height="15.172"/>
		</g>
	</g>
</g>
<g id="Background_Simple" style="display:none;">
	<g style="display:inline;">
		<path style="fill:#407BFF;" d="M250,71.348c10.712,0.052,21.451,1.418,31.959,4.158c42.91,11.19,72.967,45.006,94.227,82.277
			c9.91,17.374,18.504,36.034,20.377,55.948c4.67,49.643-36.376,89.3-73.719,115.469c-29.074,20.374-61.951,34.596-95.564,45.624
			c-28.404,9.32-63.615,12.169-88.235-7.975c-23.31-19.072-29.432-51.595-33.084-79.919c-8.673-67.267,9.418-152.502,68.888-192.723
			C197.117,79.145,223.475,71.219,250,71.348z"/>
		<path style="opacity:0.9;fill:#FFFFFF;" d="M250,71.348c10.712,0.052,21.451,1.418,31.959,4.158
			c42.91,11.19,72.967,45.006,94.227,82.277c9.91,17.374,18.504,36.034,20.377,55.948c4.67,49.643-36.376,89.3-73.719,115.469
			c-29.074,20.374-61.951,34.596-95.564,45.624c-28.404,9.32-63.615,12.169-88.235-7.975c-23.31-19.072-29.432-51.595-33.084-79.919
			c-8.673-67.267,9.418-152.502,68.888-192.723C197.117,79.145,223.475,71.219,250,71.348z"/>
	</g>
</g>
<g id="Shadow_1_">
	<ellipse id="_x3C_Path_x3E__359_" style="fill:#F5F5F5;" cx="250" cy="416.238" rx="193.889" ry="11.323"/>
</g>
<g id="Plant">
	<g>
		<path style="fill:#407BFF;" d="M81.256,365.832c0,0-6.176,1.347-8.814,0c-2.637-1.347-1.654-20.977-4.348-21.383
			c-6.201-0.934-5.146,25.136-2.509,30.63c2.637,5.493,16.23,3.157,16.23,3.157L81.256,365.832z"/>
		<path style="opacity:0.2;fill:#FFFFFF;enable-background:new    ;" d="M81.256,365.832c0,0-6.176,1.347-8.814,0
			c-2.637-1.347-1.654-20.977-4.348-21.383c-6.201-0.934-5.146,25.136-2.509,30.63c2.637,5.493,16.23,3.157,16.23,3.157
			L81.256,365.832z"/>
		<path style="fill:#407BFF;" d="M81.769,402.069c0,0-9.149-87.135,1.773-88.667s13.558-0.584,9.339,86.975L81.769,402.069z"/>
		<path style="opacity:0.3;fill:#FFFFFF;enable-background:new    ;" d="M81.769,402.069c0,0-9.149-87.135,1.773-88.667
			s13.558-0.584,9.339,86.975L81.769,402.069z"/>
		<g>
			<polygon style="fill:#263238;" points="68.942,392.231 104.869,392.231 101.869,415.217 71.942,415.217 			"/>
		</g>
		<path style="fill:#407BFF;" d="M92.618,348.047c0,0,9.955,0.87,10.252,0c0.297-0.87,0.297-19.712,4.517-18.599
			c4.22,1.113,2.374,23.795,0,26.432c-2.374,2.637-14.769,4.065-14.769,4.065S90.957,351.581,92.618,348.047z"/>
		<path style="opacity:0.4;fill:#FFFFFF;enable-background:new    ;" d="M92.618,348.047c0,0,9.955,0.87,10.252,0
			c0.297-0.87,0.297-19.712,4.517-18.599c4.22,1.113,2.374,23.795,0,26.432c-2.374,2.637-14.769,4.065-14.769,4.065
			S90.957,351.581,92.618,348.047z"/>
		<g>
			<path style="fill:#407BFF;" d="M86.309,389.911c-0.725-6.299-1.379-12.607-1.984-18.92c-0.573-6.316-1.08-12.638-1.5-18.969
				c-0.429-6.33-0.712-12.671-0.795-19.023c-0.033-3.176-0.013-6.356,0.181-9.541c0.1-1.592,0.246-3.186,0.525-4.78
				c0.15-0.797,0.321-1.594,0.63-2.39c0.154-0.396,0.352-0.797,0.67-1.178c0.088-0.096,0.208-0.191,0.317-0.279
				c0.108-0.09,0.328-0.153,0.495-0.196c0.437-0.018,0.763,0.218,0.929,0.417c0.642,0.821,0.786,1.601,1.015,2.393
				c0.195,0.789,0.358,1.578,0.486,2.368c0.266,1.579,0.46,3.161,0.627,4.743c0.33,3.165,0.559,6.333,0.75,9.501
				c0.368,6.338,0.62,12.677,0.746,19.019c0.135,6.341,0.214,12.683,0.244,19.024c-0.002,6.342-0.039,12.683-0.125,19.023
				c-0.077-6.34-0.203-12.679-0.364-19.016c-0.131-6.338-0.295-12.674-0.524-19.008c-0.248-6.332-0.471-12.666-0.886-18.985
				c-0.205-3.159-0.449-6.315-0.791-9.455c-0.174-1.569-0.373-3.135-0.642-4.68c-0.129-0.774-0.291-1.538-0.479-2.286
				c-0.186-0.722-0.44-1.535-0.792-1.965c-0.086-0.111-0.126-0.076-0.09-0.102c-0.012,0.037-0.004-0.005-0.047,0.034l-0.128,0.113
				c-0.19,0.23-0.362,0.541-0.493,0.883c-0.27,0.681-0.441,1.44-0.587,2.198c-0.276,1.528-0.428,3.096-0.534,4.666
				c-0.207,3.144-0.242,6.308-0.225,9.471c0.039,6.328,0.343,12.658,0.651,18.986c0.326,6.328,0.751,12.652,1.22,18.974
				C85.253,377.275,85.746,383.596,86.309,389.911z"/>
		</g>
		<g>
			<path style="fill:#407BFF;" d="M93.871,352.518c1.286-0.119,2.57-0.205,3.848-0.352c1.278-0.118,2.555-0.254,3.807-0.469
				c0.624-0.111,1.246-0.237,1.833-0.402c0.563-0.127,1.234-0.52,1.037-0.585c-0.081-0.759-0.015-1.359,0.006-2.026
				c0.037-0.649,0.079-1.296,0.134-1.94c0.236-2.574,0.535-5.135,0.933-7.684c0.402-2.546,0.791-5.101,1.457-7.602
				c-0.135,1.283-0.249,2.564-0.345,3.849l-0.348,3.845l-0.701,7.677c-0.105,1.252-0.246,2.608-0.201,3.744l0.006,0.134
				c0.004,0.087,0,0.177-0.01,0.262c-0.038,0.148-0.117,0.332-0.203,0.413c-0.177,0.213-0.36,0.314-0.53,0.402
				c-0.345,0.174-0.675,0.271-1.004,0.354c-0.657,0.168-1.308,0.253-1.958,0.318C99.033,352.707,96.449,352.698,93.871,352.518z"/>
		</g>
		<g>
			<path style="fill:#407BFF;" d="M93.871,356.869l4.245-0.941c1.416-0.298,2.83-0.6,4.233-0.938
				c1.378-0.356,2.851-0.653,4.071-1.166c0.131-0.06,0.286-0.157,0.253-0.147c0.05-0.094,0.114-0.215,0.162-0.375
				c0.104-0.3,0.178-0.645,0.247-0.985c0.131-0.689,0.221-1.4,0.303-2.11c0.331-2.85,0.493-5.74,0.707-8.623l0.284-4.332l0.33-4.336
				c0.171,2.899,0.192,5.799,0.155,8.7c-0.035,2.902-0.169,5.801-0.483,8.707c-0.092,0.727-0.192,1.453-0.339,2.185
				c-0.079,0.368-0.159,0.732-0.295,1.116c-0.06,0.186-0.153,0.392-0.289,0.608c-0.25,0.316-0.445,0.345-0.637,0.449
				c-1.476,0.551-2.869,0.797-4.313,1.06C99.639,356.245,96.765,356.629,93.871,356.869z"/>
		</g>
		<g>
			<path style="fill:#407BFF;" d="M78.181,369.474c-2.538,0.023-5.089-0.076-7.604-0.884c-0.313-0.123-0.628-0.242-0.935-0.437
				c-0.136-0.054-0.354-0.264-0.465-0.43c-0.104-0.166-0.202-0.336-0.26-0.495c-0.267-0.649-0.404-1.281-0.536-1.918
				c-0.236-1.271-0.367-2.541-0.483-3.809c-0.195-2.539-0.28-5.076-0.254-7.613c0.019-2.536,0.091-5.071,0.316-7.6l0.25,3.793
				l0.203,3.788c0.155,2.522,0.266,5.045,0.481,7.55c0.095,1.252,0.222,2.503,0.417,3.726c0.101,0.605,0.218,1.22,0.414,1.75
				c0.045,0.142,0.106,0.245,0.163,0.351c0.069,0.089,0.07,0.122,0.216,0.213c0.217,0.164,0.488,0.291,0.755,0.419
				c1.113,0.471,2.351,0.75,3.582,0.982C75.672,369.123,76.925,369.291,78.181,369.474z"/>
		</g>
		<g>
			<path style="fill:#407BFF;" d="M66.116,348.66c0.145,1.478,0.234,2.957,0.363,4.434l0.3,4.432
				c0.215,2.952,0.376,5.906,0.614,8.848c0.112,1.47,0.233,2.943,0.43,4.388c0.091,0.708,0.198,1.478,0.399,2.062
				c0.157,0.576,0.743,0.902,1.37,1.224c1.299,0.563,2.751,0.884,4.196,1.133c1.448,0.278,2.917,0.45,4.392,0.617
				c-2.966,0.045-5.961-0.044-8.887-1.041c-0.36-0.162-0.727-0.304-1.07-0.563c-0.34-0.221-0.687-0.621-0.806-1.024
				c-0.305-0.805-0.402-1.519-0.531-2.27c-0.232-1.486-0.36-2.966-0.49-4.448c-0.215-2.965-0.351-5.928-0.383-8.894
				C65.973,354.592,65.975,351.626,66.116,348.66z"/>
		</g>
	</g>
</g>
<g id="Screen_2">
	<g>
		<g>
			<path style="fill:#407BFF;" d="M408.435,107.951v81.19c0,1.5-1.22,2.72-2.72,2.72h-124.77c-1.5,0-2.72-1.22-2.72-2.72v-81.19
				c0-1.51,1.22-2.72,2.72-2.72h124.77C407.216,105.231,408.435,106.441,408.435,107.951z"/>
			<path style="opacity:0.6;fill:#FFFFFF;enable-background:new    ;" d="M408.435,114.421v74.72c0,1.5-1.22,2.72-2.72,2.72h-124.77
				c-1.5,0-2.72-1.22-2.72-2.72v-74.72H408.435z"/>
			<g>
				<circle style="opacity:0.4;fill:#FFFFFF;enable-background:new    ;" cx="402.984" cy="110.061" r="1.879"/>
				<circle style="opacity:0.4;fill:#FFFFFF;enable-background:new    ;" cx="395.863" cy="110.061" r="1.879"/>
				<path style="opacity:0.4;fill:#FFFFFF;enable-background:new    ;" d="M390.622,110.061c0,1.038-0.841,1.879-1.879,1.879
					c-1.038,0-1.879-0.841-1.879-1.879c0-1.038,0.841-1.879,1.879-1.879C389.78,108.182,390.622,109.023,390.622,110.061z"/>
			</g>
		</g>
		<g>
			<rect x="282.639" y="119.396" style="opacity:0.2;fill:#FFFFFF;enable-background:new    ;" width="121.382" height="68.313"/>
			<g>
				<polygon style="fill:#FFFFFF;" points="404.022,147.516 404.022,149.234 394.769,159.323 382.81,152.508 379.862,157.198 
					378.515,159.335 367.439,176.924 357.86,159.16 357.28,158.069 351.823,147.957 338.39,168.913 328.011,166.242 
					315.182,170.596 310.236,167.88 282.639,173.348 282.639,172.164 310.422,166.661 315.298,169.331 327.976,165.023 
					337.868,167.589 351.916,145.67 358.104,157.175 358.697,158.255 367.508,174.625 376.32,160.623 377.667,158.487 
					382.416,150.941 394.536,157.848 				"/>
			</g>
			<g style="enable-background:new    ;">
				<path style="fill:#407BFF;" d="M404.022,162.063v1.196l-7.128,1.59l-14.269-7.93l-4.11,2.415l-2.194,1.289l-3.053,1.799
					l-9.335-9.845l-5.236,5.677l-0.836,0.906l-20.433,22.152l-8.684-12.051l-15.801,4.888l-8.162-2.67
					c-7.187,2.519-16.916,5.967-22.14,7.86v-1.242c3.622-1.335,10.147-3.634,21.943-7.779l0.186-0.058l8.185,2.67l16.254-5.027
					l8.325,11.575l19.748-21.409l0.824-0.894l5.817-6.304l9.555,10.089l4.191-2.473l2.194-1.289l2.751-1.625l14.454,8.046
					L404.022,162.063z"/>
			</g>
		</g>
	</g>
</g>
<g id="Screen_1">
	<g>
		<g>
			<path style="fill:#407BFF;" d="M296.626,139.716v148.19c0,1.5-1.22,2.72-2.72,2.72H79.136c-1.5,0-2.72-1.22-2.72-2.72v-148.19
				c0-1.51,1.22-2.72,2.72-2.72h214.77C295.406,136.996,296.626,138.206,296.626,139.716z"/>
			<path style="opacity:0.4;fill:#FFFFFF;enable-background:new    ;" d="M296.626,146.186v141.72c0,1.5-1.22,2.72-2.72,2.72H79.136
				c-1.5,0-2.72-1.22-2.72-2.72v-141.72H296.626z"/>
			<path style="opacity:0.2;enable-background:new    ;" d="M296.626,281.876v6.03c0,1.5-1.22,2.72-2.72,2.72H79.136
				c-1.5,0-2.72-1.22-2.72-2.72v-6.03H296.626z"/>
			<g>
				<circle style="opacity:0.4;fill:#FFFFFF;enable-background:new    ;" cx="291.175" cy="141.826" r="1.879"/>
				<circle style="opacity:0.4;fill:#FFFFFF;enable-background:new    ;" cx="284.054" cy="141.826" r="1.879"/>
				<path style="opacity:0.4;fill:#FFFFFF;enable-background:new    ;" d="M278.812,141.826c0,1.038-0.841,1.879-1.879,1.879
					c-1.038,0-1.879-0.841-1.879-1.879c0-1.038,0.841-1.879,1.879-1.879C277.971,139.947,278.812,140.788,278.812,141.826z"/>
			</g>
			<rect x="76.416" y="146.186" style="opacity:0.2;enable-background:new    ;" width="220.21" height="8.906"/>
			<g>
				<g>
					
						<line style="fill:none;stroke:#FFFFFF;stroke-linecap:round;stroke-linejoin:round;stroke-miterlimit:10;" x1="84.373" y1="150.546" x2="80.417" y2="150.546"/>
					<polyline style="fill:none;stroke:#FFFFFF;stroke-linecap:round;stroke-linejoin:round;stroke-miterlimit:10;" points="
						81.553,152.168 79.932,150.546 81.553,148.924 					"/>
				</g>
				<g>
					
						<line style="fill:none;stroke:#FFFFFF;stroke-linecap:round;stroke-linejoin:round;stroke-miterlimit:10;" x1="292.56" y1="148.546" x2="288.307" y2="148.546"/>
					
						<line style="fill:none;stroke:#FFFFFF;stroke-linecap:round;stroke-linejoin:round;stroke-miterlimit:10;" x1="292.56" y1="150.546" x2="288.307" y2="150.546"/>
					
						<line style="fill:none;stroke:#FFFFFF;stroke-linecap:round;stroke-linejoin:round;stroke-miterlimit:10;" x1="292.56" y1="152.546" x2="288.307" y2="152.546"/>
				</g>
			</g>
		</g>
		<g>
			<g>
				
					<line style="fill:none;stroke:#FFFFFF;stroke-width:2;stroke-linecap:round;stroke-linejoin:round;stroke-miterlimit:10;" x1="87.588" y1="169.692" x2="131.5" y2="169.692"/>
				
					<line style="fill:none;stroke:#FFFFFF;stroke-width:2;stroke-linecap:round;stroke-linejoin:round;stroke-miterlimit:10;" x1="87.588" y1="180.111" x2="166.709" y2="180.111"/>
				
					<line style="fill:none;stroke:#FFFFFF;stroke-width:2;stroke-linecap:round;stroke-linejoin:round;stroke-miterlimit:10;" x1="87.588" y1="186.555" x2="166.709" y2="186.555"/>
				
					<line style="fill:none;stroke:#FFFFFF;stroke-width:2;stroke-linecap:round;stroke-linejoin:round;stroke-miterlimit:10;" x1="87.588" y1="192.998" x2="166.709" y2="192.998"/>
				
					<line style="fill:none;stroke:#FFFFFF;stroke-width:2;stroke-linecap:round;stroke-linejoin:round;stroke-miterlimit:10;" x1="87.588" y1="199.441" x2="166.709" y2="199.441"/>
				
					<line style="fill:none;stroke:#FFFFFF;stroke-width:2;stroke-linecap:round;stroke-linejoin:round;stroke-miterlimit:10;" x1="87.588" y1="205.884" x2="166.709" y2="205.884"/>
				
					<line style="fill:none;stroke:#FFFFFF;stroke-width:2;stroke-linecap:round;stroke-linejoin:round;stroke-miterlimit:10;" x1="87.588" y1="212.327" x2="166.709" y2="212.327"/>
				
					<line style="fill:none;stroke:#FFFFFF;stroke-width:2;stroke-linecap:round;stroke-linejoin:round;stroke-miterlimit:10;" x1="87.588" y1="218.77" x2="166.709" y2="218.77"/>
				
					<line style="fill:none;stroke:#FFFFFF;stroke-width:2;stroke-linecap:round;stroke-linejoin:round;stroke-miterlimit:10;" x1="87.588" y1="225.213" x2="166.709" y2="225.213"/>
			</g>
			<g>
				<rect x="180.901" y="166.375" style="opacity:0.4;fill:#FFFFFF;enable-background:new    ;" width="104.553" height="58.838"/>
				<polygon style="fill:#FFFFFF;" points="180.901,213.383 206.402,208.33 210.357,210.504 220.643,207.011 228.819,209.121 
					239.896,191.832 252.478,215.187 264.687,195.794 274.393,201.328 285.454,189.272 285.454,225.213 180.901,225.213 				"/>
				<path style="fill:#407BFF;enable-background:new    ;" d="M180.901,218.77c0-0.155,21.017-7.539,21.017-7.539l6.593,2.153
					l12.923-3.999l6.857,9.531l21.329-23.121l7.613,8.037l7.454-4.391l11.585,6.443l9.182-2.052v21.382H180.901V218.77z"/>
			</g>
		</g>
		<g>
			<g>
				<circle style="opacity:0.3;fill:#FFFFFF;enable-background:new    ;" cx="162.025" cy="255.495" r="19.205"/>
				<path style="fill:#407BFF;" d="M162.025,255.495h19.205c0,10.536-8.67,19.205-19.205,19.205
					c-10.536,0-19.205-8.67-19.205-19.205c0-10.536,8.67-19.205,19.205-19.205c0.01,0,0.021,0,0.031,0L162.025,255.495z"/>
				<circle style="fill:#FFFFFF;" cx="162.025" cy="255.495" r="12.601"/>
				
					<line style="fill:none;stroke:#407BFF;stroke-width:2;stroke-linecap:round;stroke-linejoin:round;stroke-miterlimit:10;" x1="157.609" y1="255.495" x2="166.441" y2="255.495"/>
			</g>
			<g>
				<circle style="opacity:0.3;fill:#FFFFFF;enable-background:new    ;" cx="211.018" cy="255.495" r="19.205"/>
				<path style="fill:#407BFF;" d="M211.018,255.495l13.153,13.994c-3.56,3.346-8.267,5.211-13.153,5.211
					c-10.536,0-19.205-8.67-19.205-19.205c0-10.536,8.67-19.205,19.205-19.205c0.01,0,0.021,0,0.031,0L211.018,255.495z"/>
				<circle style="fill:#FFFFFF;" cx="211.018" cy="255.495" r="12.601"/>
				
					<line style="fill:none;stroke:#407BFF;stroke-width:2;stroke-linecap:round;stroke-linejoin:round;stroke-miterlimit:10;" x1="206.602" y1="255.495" x2="215.433" y2="255.495"/>
			</g>
			<g>
				<circle style="opacity:0.3;fill:#FFFFFF;enable-background:new    ;" cx="260.01" cy="255.495" r="19.205"/>
				<path style="fill:#407BFF;" d="M260.01,255.495h19.205c0,10.536-8.67,19.205-19.205,19.205c-10.536,0-19.205-8.67-19.205-19.205
					c0-4.369,1.491-8.611,4.225-12.019L260.01,255.495z"/>
				<circle style="fill:#FFFFFF;" cx="260.01" cy="255.495" r="12.601"/>
				
					<line style="fill:none;stroke:#407BFF;stroke-width:2;stroke-linecap:round;stroke-linejoin:round;stroke-miterlimit:10;" x1="255.594" y1="255.495" x2="264.426" y2="255.495"/>
			</g>
			<g>
				<circle style="opacity:0.3;fill:#FFFFFF;enable-background:new    ;" cx="113.032" cy="255.495" r="19.205"/>
				<path style="fill:#407BFF;" d="M113.032,255.495l16.641-9.587c-3.424-5.943-9.782-9.618-16.641-9.618c-0.011,0-0.021,0-0.031,0
					L113.032,255.495z"/>
				<circle style="fill:#FFFFFF;" cx="113.032" cy="255.495" r="12.601"/>
				
					<line style="fill:none;stroke:#407BFF;stroke-width:2;stroke-linecap:round;stroke-linejoin:round;stroke-miterlimit:10;" x1="117.448" y1="255.495" x2="108.617" y2="255.495"/>
			</g>
		</g>
	</g>
	<g>
		<g>
			<path style="fill:#407BFF;" d="M193.787,119.853c-0.384,0-0.768-0.146-1.061-0.439c-1.658-1.658-3.861-2.57-6.205-2.57
				c-2.344,0-4.547,0.913-6.205,2.57c-0.585,0.586-1.535,0.586-2.121,0c-0.586-0.586-0.586-1.535,0-2.121
				c2.224-2.224,5.181-3.449,8.326-3.449c3.146,0,6.103,1.225,8.326,3.449c0.586,0.586,0.586,1.536,0,2.121
				C194.554,119.707,194.171,119.853,193.787,119.853z"/>
		</g>
		<g>
			<path style="fill:#407BFF;" d="M199.125,114.514c-0.384,0-0.768-0.146-1.061-0.439c-6.365-6.366-16.722-6.365-23.087,0
				c-0.586,0.586-1.535,0.586-2.121,0c-0.586-0.586-0.586-1.536,0-2.121c7.535-7.535,19.795-7.535,27.33,0
				c0.586,0.586,0.586,1.536,0,2.121C199.893,114.368,199.509,114.514,199.125,114.514z"/>
		</g>
		<g>
			<path style="fill:#407BFF;" d="M204.084,109.556c-0.384,0-0.768-0.146-1.061-0.439c-4.408-4.408-10.269-6.836-16.502-6.836
				s-12.094,2.428-16.502,6.836c-0.586,0.586-1.535,0.586-2.121,0c-0.586-0.585-0.586-1.535,0-2.121
				c4.975-4.975,11.588-7.715,18.624-7.715c7.035,0,13.649,2.74,18.624,7.715c0.586,0.586,0.586,1.536,0,2.121
				C204.852,109.409,204.468,109.556,204.084,109.556z"/>
		</g>
		<g>
			<path style="fill:#407BFF;" d="M189.415,125.279c0,1.598-1.296,2.894-2.894,2.894c-1.598,0-2.894-1.296-2.894-2.894
				c0-1.599,1.296-2.894,2.894-2.894C188.12,122.385,189.415,123.68,189.415,125.279z"/>
		</g>
	</g>
</g>
<g id="Character">
	<g>
		<rect x="250.123" y="397.474" style="fill:#407BFF;" width="168.492" height="17.744"/>
		<rect x="250.123" y="397.474" style="opacity:0.4;fill:#FFFFFF;enable-background:new    ;" width="168.492" height="17.744"/>
		<rect x="250.123" y="397.474" style="opacity:0.2;fill:#FFFFFF;enable-background:new    ;" width="102.462" height="17.744"/>
		<g>
			<g>
				<path style="fill:#407BFF;" d="M312.508,354.657h112.528l17.148-88.557c1.875-9.681-5.541-18.671-15.402-18.671h-80.568
					c-7.515,0-13.974,5.328-15.402,12.706L312.508,354.657z"/>
				<path style="opacity:0.3;enable-background:new    ;" d="M393.076,354.657h31.96l17.148-88.557
					c1.875-9.681-5.541-18.671-15.402-18.671h0c-7.514,0-13.974,5.328-15.402,12.706L393.076,354.657z"/>
			</g>
		</g>
		<g>
			<path style="fill:#407BFF;" d="M238.07,392.332c0,4.366,3.539,7.905,7.905,7.905h175.419c4.366,0,7.905-3.539,7.905-7.905
				v-30.853c0-4.366-3.539-7.905-7.905-7.905H245.975c-4.366,0-7.905,3.539-7.905,7.905V392.332z"/>
			<path style="opacity:0.3;enable-background:new    ;" d="M345.268,392.332c0,4.366,3.539,7.905,7.905,7.905h68.221
				c4.366,0,7.905-3.539,7.905-7.905v-30.853c0-4.366-3.539-7.905-7.905-7.905h-68.221c-4.366,0-7.905,3.539-7.905,7.905V392.332z"
				/>
		</g>
	</g>
	<g>
		<g>
			<path style="fill:#263238;" d="M340.09,255.868c-6.675,0.481-8.985,32.077-9.444,33.462
				c-0.459,1.385-18.138,28.483-18.138,28.483l3.635,3.758c0,0,24.33-22.945,25.121-31.253S346.037,255.44,340.09,255.868z"/>
			<path style="opacity:0.2;enable-background:new    ;" d="M342.38,280.09c-0.43,4.17-0.9,7.91-1.12,10.23
				c-0.24,2.54-2.67,6.43-5.93,10.61c-4.71-10.07,2.55-32.37,2.55-32.37S340.14,273.66,342.38,280.09z"/>
		</g>
		<polygon style="fill:#EBB376;" points="306.047,405.195 312.627,402.573 310.057,392.979 307.686,384.182 299.367,386.023 
			302.899,396.175 		"/>
		<polygon style="opacity:0.2;enable-background:new    ;" points="302.981,396.378 310.129,393.16 307.721,384.272 
			299.385,386.068 		"/>
		<path style="fill:#407BFF;" d="M355.839,318.78c0,0-54.984-7.414-70.281,2.344c-15.297,9.758,14.312,69.201,14.312,69.201
			l9.259-2.046c0,0-6.938-47.116-6.42-49.091c0.519-1.975,26.415,10.885,61.863,12.103L355.839,318.78z"/>
		<path style="opacity:0.5;fill:#FFFFFF;enable-background:new    ;" d="M355.839,318.78c0,0-54.984-7.414-70.281,2.344
			c-15.297,9.758,14.312,69.201,14.312,69.201l9.259-2.046c0,0-6.938-47.116-6.42-49.091c0.519-1.975,26.415,10.885,61.863,12.103
			L355.839,318.78z"/>
		<polygon style="fill:#EBB376;" points="246.761,402.25 251.857,407.17 259.546,400.883 266.591,395.104 261.492,388.279 
			253.69,395.672 		"/>
		<path style="fill:#2E353A;" d="M253.865,408.004c0.618-0.479-5.573-7.835-5.573-7.835s-8.337-1.182-12.827-4.994
			c-4.492-3.811-5.356,0.81-1.55,5.966c3.806,5.156,6.712,9.09,9.416,12.754C246.035,417.558,247.465,412.964,253.865,408.004z"/>
		
			<path style="fill:none;stroke:#577AFA;stroke-width:0.4831;stroke-linecap:round;stroke-linejoin:round;stroke-miterlimit:10;" d="
			M246.775,399.821c0,0,2.104-3.113,0.368-4.046C245.145,394.703,246.775,399.821,246.775,399.821s-1.569-4.214-2.995-3.632
			C241.62,397.069,246.775,399.821,246.775,399.821z"/>
		<polygon style="opacity:0.2;enable-background:new    ;" points="253.538,395.83 259.411,401.023 266.523,395.174 
			261.458,388.313 		"/>
		<path style="fill:#407BFF;" d="M340.239,325.891c0,0,0.792-10.88,1.158-13.1c0.377-2.356,0.874-5.111,1.345-6.515
			c2.419-7.257,34.749,1.274,34.749,1.274s19.121,28.804,5.758,42.387c-2.963,3.013-8.772,4.368-14.706,4.32
			c0,0-18.13,0.877-51.842-0.694c0,0-11.868,17.67-53.011,45.767l-6.709-7.026c0,0,46.508-53.452,48.05-54.697
			C318.476,326.748,340.239,325.891,340.239,325.891z"/>
		<path style="opacity:0.6;fill:#FFFFFF;enable-background:new    ;" d="M340.239,325.891c0,0,0.792-10.88,1.158-13.1
			c0.377-2.356,0.874-5.111,1.345-6.515c2.419-7.257,34.749,1.274,34.749,1.274s19.121,28.804,5.758,42.387
			c-2.963,3.013-8.772,4.368-14.706,4.32c0,0-18.13,0.877-51.842-0.694c0,0-11.868,17.67-53.011,45.767l-6.709-7.026
			c0,0,46.508-53.452,48.05-54.697C318.476,326.748,340.239,325.891,340.239,325.891z"/>
		<polygon style="fill:#407BFF;" points="266.768,398.267 258.532,389.196 254.547,393.285 262.268,401.547 		"/>
		<g>
			<path style="fill:#263238;" d="M380.346,266.154c-3.185,9.584-3.333,31.229-2.208,43.193l-36.168-0.232
				c-6.222-23.854-4.12-40.6-3.587-46.189c0.657-6.803,1.71-7.054,1.71-7.054s7.373-0.725,13.798-0.677
				c4.967,0.175,9.923,0.696,14.822,1.565c3.644,0.607,7.246,1.418,10.796,2.431c1.578,0.45,2.459,2.128,1.932,3.682
				C381.058,264.003,380.694,265.096,380.346,266.154z"/>
			<path style="opacity:0.1;fill:#FFFFFF;enable-background:new    ;" d="M341.97,309.118l21.81,0.141l14.36,0.09
				c-0.83-8.81-0.97-22.85,0.29-33.47c0.45-3.82,1.08-7.19,1.92-9.721c0.34-1.06,0.71-2.159,1.09-3.279
				c0.53-1.561-0.35-3.24-1.93-3.69c-3.55-1.01-7.149-1.82-10.8-2.43c-4.9-0.87-9.85-1.391-14.82-1.561
				c-6.42-0.05-13.8,0.67-13.8,0.67s-1.05,0.261-1.71,7.06C337.85,268.518,335.75,285.259,341.97,309.118z"/>
			<path style="opacity:0.2;enable-background:new    ;" d="M378.14,309.349c-0.83-8.81-0.97-22.85,0.29-33.47
				c-4.45,6.319-12.28,19.069-14.65,33.38L378.14,309.349z"/>
		</g>
		<path style="fill:#E4897B;" d="M354.572,322.303c0,0-9.028,5.871-10.063,6.336c-1.034,0.464-7.73,2.102-9.646,1.993
			c-1.915-0.108,0.647-6.102,2.292-6.881c1.645-0.778,7.55,0.284,7.55,0.284l6.985-5.255L354.572,322.303z"/>
		<g>
			<path style="fill:#263238;" d="M292.844,328.639v2.938c0,0.754,0.888,1.063,1.632,1.063h58.707c0.754,0,1.661-0.309,1.661-1.063
				v-2.938H292.844z"/>
			<path style="opacity:0.4;fill:#FFFFFF;enable-background:new    ;" d="M292.844,328.639v2.938c0,0.754,0.888,1.063,1.632,1.063
				h58.707c0.754,0,1.661-0.309,1.661-1.063v-2.938H292.844z"/>
			<path style="opacity:0.2;enable-background:new    ;" d="M292.844,328.639v2.938c0,0.754,0.888,1.063,1.632,1.063h38.721
				c0.753,0,1.647-0.309,1.647-1.063v-2.938H292.844z"/>
			<path style="fill:#263238;" d="M283.021,298.138l6.988,31.699c0.227,1.044,1.244,1.802,2.27,1.802h38.176
				c1.017,0,1.67-0.948,1.434-1.992l-6.98-31.457c-0.236-1.035-1.243-1.551-2.269-1.551h-38.177
				C283.438,296.639,282.794,297.102,283.021,298.138z"/>
			<path style="opacity:0.4;fill:#FFFFFF;enable-background:new    ;" d="M283.021,298.138l6.988,31.699
				c0.227,1.044,1.244,1.802,2.27,1.802h36.878c1.025,0,1.67-0.948,1.443-1.992l-6.989-31.457c-0.227-1.035-1.243-1.551-2.269-1.551
				h-36.878C283.438,296.639,282.794,297.102,283.021,298.138z"/>
			<path style="opacity:0.2;enable-background:new    ;" d="M301.844,314.249v0.01c0,2.714,2.91,4.919,5.043,4.919
				c2.133,0,3.397-2.205,2.79-4.919c-0.608-2.66-2.731-4.829-4.818-4.911c0.608,2.714-0.695,4.911-2.819,4.911
				C301.994,314.259,301.844,314.259,301.844,314.249z"/>
		</g>
		<path style="fill:#263238;" d="M381.064,260.305c-7.171-5.757-4.451,26.657-7.836,34.042
			c-3.385,7.385-23.534,24.831-23.534,24.831l4.326,4.857c0,0,24.599-13.564,28.054-22.67
			C386.455,289.818,386.356,264.552,381.064,260.305z"/>
		<polygon style="fill:#407BFF;" points="349.694,319.178 346.927,321.512 350.723,326.127 354.02,324.035 		"/>
		<polygon style="fill:#407BFF;" points="309.641,385.32 297.987,389.099 300.076,394.412 310.782,390.771 		"/>
		<g>
			
				<path style="fill:none;stroke:#577AFA;stroke-width:0.4831;stroke-linecap:round;stroke-linejoin:round;stroke-miterlimit:10;" d="
				M302.71,404.915c0,0-1.374-3.497-3.126-2.594C297.568,403.361,302.71,404.915,302.71,404.915s-4.362-1.093-4.69,0.412
				C297.522,407.606,302.71,404.915,302.71,404.915z"/>
			<path style="fill:#2E353A;" d="M313.971,402.396c-0.045-0.781-9.614,0.157-9.614,0.157s-5.695,6.202-11.38,7.745
				c-5.685,1.544-2.365,4.873,4.04,4.656c6.405-0.218,11.293-0.385,15.844-0.539C317.413,414.259,314.437,410.479,313.971,402.396z"
				/>
		</g>
		<path style="fill:#407BFF;" d="M360.753,253.495c0,0,8.785-0.71,10.967,3.815c2.182,4.525-2.032,11.25-2.032,11.25l-6.345-4.747
			l-13.064,4.747l-3.352-4.549l-2.549,1.385C344.378,265.396,344.241,251.485,360.753,253.495z"/>
		<path style="opacity:0.2;fill:#FFFFFF;enable-background:new    ;" d="M360.753,253.495c0,0,8.785-0.71,10.967,3.815
			c2.182,4.525-2.032,11.25-2.032,11.25l-6.345-4.747l-13.064,4.747l-3.352-4.549l-2.549,1.385
			C344.378,265.396,344.241,251.485,360.753,253.495z"/>
		<path style="fill:#E4897B;" d="M367.193,257.971c0,0-3.313,4.727-15.793,8.948c0,0-5.56-7.068,2.894-10.298
			c0,0,1.76-0.55,2.14-3.351c0.19-1.35,0.061-3.23-0.75-5.83c-0.09-0.3-0.2-0.619-0.31-0.939l10.28-6.43
			C365.653,240.071,362.033,253.1,367.193,257.971z"/>
		<path style="opacity:0.2;enable-background:new    ;" d="M363.343,243.801c0,0-0.55,7.35-6.91,9.47
			c0.19-1.35,0.061-3.23-0.75-5.83C359.432,245.461,363.343,243.801,363.343,243.801z"/>
		<g>
			<path style="fill:#263238;" d="M350.162,222.281c0,0-1.259-8.605,7.909-11.374c2.292-0.692,4.603-0.642,6.78-0.177
				c7.536,1.609,12.823,8.406,13.081,16.107c0.281,8.411-1.685,19.165-13.819,18.191
				C344.404,243.446,350.162,222.281,350.162,222.281z"/>
			<path style="fill:#E4897B;" d="M360.633,219.2c-8.487-0.795-11.645,3.493-13.085,12.181c-1.8,10.857-0.104,18.851,10.726,17.51
				C372.982,247.069,374.727,220.519,360.633,219.2z"/>
			<path style="fill:#DE5753;" d="M353.078,231.421c0,0-1.384,2.106-2.799,3.288c0,0,0.619,1.223,2.147,1.17L353.078,231.421z"/>
			<g>
				<path style="fill:#263238;" d="M358.338,231.213c-0.082,0.696,0.228,1.304,0.692,1.358c0.464,0.055,0.906-0.466,0.988-1.161
					c0.081-0.695-0.228-1.304-0.692-1.358C358.861,229.998,358.42,230.518,358.338,231.213z"/>
				<path style="fill:#263238;" d="M359.514,230.108l-1.443-0.771C358.071,229.338,358.676,230.699,359.514,230.108z"/>
			</g>
			<g>
				<path style="fill:#263238;" d="M349.707,230.054c-0.082,0.696,0.228,1.304,0.692,1.358c0.464,0.055,0.906-0.466,0.988-1.161
					c0.081-0.695-0.229-1.304-0.692-1.357C350.23,228.839,349.788,229.358,349.707,230.054z"/>
				<path style="fill:#263238;" d="M350.884,228.949l-1.443-0.77C349.44,228.179,350.044,229.54,350.884,228.949z"/>
			</g>
			
				<path style="fill:none;stroke:#263238;stroke-width:0.7247;stroke-linecap:round;stroke-linejoin:round;stroke-miterlimit:10;" d="
				M358.972,225.36c0,0,2.414-0.087,3.561,1.628"/>
			
				<path style="fill:none;stroke:#263238;stroke-width:0.7247;stroke-linecap:round;stroke-linejoin:round;stroke-miterlimit:10;" d="
				M352.837,224.424c0,0-1.447-0.695-3.448,0.381"/>
			<path style="fill:#263238;" d="M368.568,234.373c0,0-3.315-7.345-2.21-12.672c0,0-16.175-8.445-18.603,8.548
				c0,0-0.224-15.313,14.397-14.284c14.598,1.027,12.561,22.367,4.43,28.021C366.582,243.986,370.615,238.964,368.568,234.373z"/>
			<path style="fill:#E4897B;" d="M367.014,236.035c0.185-1.361,1.811-3.542,4.327-3.027c2.603,0.533,3.351,6.05-3.313,6.735
				C367.073,239.842,366.629,238.875,367.014,236.035z"/>
			<g>
				<path style="fill:#263238;" d="M351.116,239.154c0.466,1.011,0.928,2.906,0.928,2.906c0.18-0.011,0.358-0.021,0.537-0.042
					c2.427-0.209,3.484-1.107,3.92-2.041c0.236-0.511,0.281-1.038,0.261-1.464c-0.018-0.492-0.143-0.839-0.143-0.839
					c-1.221,0.88-3.468,1.249-4.677,1.396C351.436,239.137,351.116,239.154,351.116,239.154z"/>
				<path style="fill:#FFFFFF;" d="M351.942,239.07l0.295,0.85c2.286-0.202,3.868-0.651,4.524-1.406
					c-0.018-0.492-0.143-0.839-0.143-0.839C355.398,238.555,353.151,238.924,351.942,239.07z"/>
				<path style="fill:#DE5753;" d="M352.58,242.018c2.427-0.209,3.484-1.107,3.92-2.041c-0.825,0.104-1.807,0.319-2.649,0.767
					C353.206,241.083,352.822,241.554,352.58,242.018z"/>
			</g>
			<path style="fill:#263238;" d="M375.385,227.862c0,0-4.081-6.492,2.842-9.064c6.923-2.571,13.648,6.342,9.495,12.517
				c-4.154,6.176-10.78,3.913-10.78,3.913L375.385,227.862z"/>
		</g>
	</g>
</g>
</svg>
